<svg xmlns="http://www.w3.org/2000/svg" viewBox="0 0 800 600">
  <defs>
    <linearGradient id="goldGrad" x1="0%" y1="0%" x2="100%" y2="0%">
      <stop offset="0%" style="stop-color:#DAA520"/>
      <stop offset="50%" style="stop-color:#FFD700"/>
      <stop offset="100%" style="stop-color:#DAA520"/>
    </linearGradient>
  </defs>
  
  <!-- Fond -->
  <rect width="800" height="600" fill="#1a1a1a"/>
  
  <!-- Bandes horizontales Kente -->
  <!-- Bande 1 -->
  <g transform="translate(0, 0)">
    <rect x="0" y="0" width="800" height="75" fill="#DAA520"/>
    <rect x="0" y="15" width="800" height="15" fill="#228B22"/>
    <rect x="0" y="45" width="800" height="15" fill="#B22222"/>
    <!-- Motifs verticaux -->
    <g fill="#1a1a1a">
      <rect x="50" y="0" width="20" height="75"/>
      <rect x="150" y="0" width="20" height="75"/>
      <rect x="250" y="0" width="20" height="75"/>
      <rect x="350" y="0" width="20" height="75"/>
      <rect x="450" y="0" width="20" height="75"/>
      <rect x="550" y="0" width="20" height="75"/>
      <rect x="650" y="0" width="20" height="75"/>
      <rect x="750" y="0" width="20" height="75"/>
    </g>
  </g>
  
  <!-- Bande 2 - motifs géométriques -->
  <g transform="translate(0, 75)">
    <rect x="0" y="0" width="800" height="75" fill="#B22222"/>
    <rect x="0" y="15" width="800" height="15" fill="#DAA520"/>
    <rect x="0" y="45" width="800" height="15" fill="#4169E1"/>
    <g fill="#1a1a1a">
      <rect x="100" y="0" width="20" height="75"/>
      <rect x="200" y="0" width="20" height="75"/>
      <rect x="300" y="0" width="20" height="75"/>
      <rect x="400" y="0" width="20" height="75"/>
      <rect x="500" y="0" width="20" height="75"/>
      <rect x="600" y="0" width="20" height="75"/>
      <rect x="700" y="0" width="20" height="75"/>
    </g>
  </g>
  
  <!-- Bande 3 -->
  <g transform="translate(0, 150)">
    <rect x="0" y="0" width="800" height="75" fill="#228B22"/>
    <rect x="0" y="15" width="800" height="15" fill="#B22222"/>
    <rect x="0" y="45" width="800" height="15" fill="#DAA520"/>
    <g fill="#1a1a1a">
      <rect x="50" y="0" width="20" height="75"/>
      <rect x="150" y="0" width="20" height="75"/>
      <rect x="250" y="0" width="20" height="75"/>
      <rect x="350" y="0" width="20" height="75"/>
      <rect x="450" y="0" width="20" height="75"/>
      <rect x="550" y="0" width="20" height="75"/>
      <rect x="650" y="0" width="20" height="75"/>
      <rect x="750" y="0" width="20" height="75"/>
    </g>
  </g>
  
  <!-- Bande 4 -->
  <g transform="translate(0, 225)">
    <rect x="0" y="0" width="800" height="75" fill="#4169E1"/>
    <rect x="0" y="15" width="800" height="15" fill="#DAA520"/>
    <rect x="0" y="45" width="800" height="15" fill="#228B22"/>
    <g fill="#1a1a1a">
      <rect x="100" y="0" width="20" height="75"/>
      <rect x="200" y="0" width="20" height="75"/>
      <rect x="300" y="0" width="20" height="75"/>
      <rect x="400" y="0" width="20" height="75"/>
      <rect x="500" y="0" width="20" height="75"/>
      <rect x="600" y="0" width="20" height="75"/>
      <rect x="700" y="0" width="20" height="75"/>
    </g>
  </g>
  
  <!-- Bande 5 -->
  <g transform="translate(0, 300)">
    <rect x="0" y="0" width="800" height="75" fill="#DAA520"/>
    <rect x="0" y="15" width="800" height="15" fill="#B22222"/>
    <rect x="0" y="45" width="800" height="15" fill="#4169E1"/>
    <g fill="#1a1a1a">
      <rect x="50" y="0" width="20" height="75"/>
      <rect x="150" y="0" width="20" height="75"/>
      <rect x="250" y="0" width="20" height="75"/>
      <rect x="350" y="0" width="20" height="75"/>
      <rect x="450" y="0" width="20" height="75"/>
      <rect x="550" y="0" width="20" height="75"/>
      <rect x="650" y="0" width="20" height="75"/>
      <rect x="750" y="0" width="20" height="75"/>
    </g>
  </g>
  
  <!-- Bande 6 -->
  <g transform="translate(0, 375)">
    <rect x="0" y="0" width="800" height="75" fill="#B22222"/>
    <rect x="0" y="15" width="800" height="15" fill="#228B22"/>
    <rect x="0" y="45" width="800" height="15" fill="#DAA520"/>
    <g fill="#1a1a1a">
      <rect x="100" y="0" width="20" height="75"/>
      <rect x="200" y="0" width="20" height="75"/>
      <rect x="300" y="0" width="20" height="75"/>
      <rect x="400" y="0" width="20" height="75"/>
      <rect x="500" y="0" width="20" height="75"/>
      <rect x="600" y="0" width="20" height="75"/>
      <rect x="700" y="0" width="20" height="75"/>
    </g>
  </g>
  
  <!-- Bande 7 -->
  <g transform="translate(0, 450)">
    <rect x="0" y="0" width="800" height="75" fill="#228B22"/>
    <rect x="0" y="15" width="800" height="15" fill="#4169E1"/>
    <rect x="0" y="45" width="800" height="15" fill="#B22222"/>
    <g fill="#1a1a1a">
      <rect x="50" y="0" width="20" height="75"/>
      <rect x="150" y="0" width="20" height="75"/>
      <rect x="250" y="0" width="20" height="75"/>
      <rect x="350" y="0" width="20" height="75"/>
      <rect x="450" y="0" width="20" height="75"/>
      <rect x="550" y="0" width="20" height="75"/>
      <rect x="650" y="0" width="20" height="75"/>
      <rect x="750" y="0" width="20" height="75"/>
    </g>
  </g>
  
  <!-- Bande 8 -->
  <g transform="translate(0, 525)">
    <rect x="0" y="0" width="800" height="75" fill="#DAA520"/>
    <rect x="0" y="15" width="800" height="15" fill="#228B22"/>
    <rect x="0" y="45" width="800" height="15" fill="#4169E1"/>
    <g fill="#1a1a1a">
      <rect x="100" y="0" width="20" height="75"/>
      <rect x="200" y="0" width="20" height="75"/>
      <rect x="300" y="0" width="20" height="75"/>
      <rect x="400" y="0" width="20" height="75"/>
      <rect x="500" y="0" width="20" height="75"/>
      <rect x="600" y="0" width="20" height="75"/>
      <rect x="700" y="0" width="20" height="75"/>
    </g>
  </g>
  
  <!-- Motifs Adinkra centraux -->
  <g transform="translate(400, 300)" fill="none" stroke="#FFD700" stroke-width="3">
    <circle cx="0" cy="0" r="50"/>
    <circle cx="0" cy="0" r="35"/>
    <line x1="-50" y1="0" x2="50" y2="0"/>
    <line x1="0" y1="-50" x2="0" y2="50"/>
    <line x1="-35" y1="-35" x2="35" y2="35"/>
    <line x1="35" y1="-35" x2="-35" y2="35"/>
  </g>
</svg>
